<mxfile host="65bd71144e">
    <diagram id="JAE3TrR9RpjoKLnJmfdY" name="Page-1">
        <mxGraphModel dx="2232" dy="866" grid="1" gridSize="10" guides="1" tooltips="1" connect="1" arrows="1" fold="1" page="1" pageScale="1" pageWidth="850" pageHeight="1100" math="0" shadow="0">
            <root>
                <mxCell id="0"/>
                <mxCell id="1" parent="0"/>
                <mxCell id="172" value="" style="rounded=0;whiteSpace=wrap;html=1;" parent="1" vertex="1">
                    <mxGeometry x="82.5" y="100" width="1090" height="1450" as="geometry"/>
                </mxCell>
                <mxCell id="3" value="Actor" style="shape=umlActor;verticalLabelPosition=bottom;verticalAlign=top;html=1;outlineConnect=0;" parent="1" vertex="1">
                    <mxGeometry x="40" y="260" width="30" height="60" as="geometry"/>
                </mxCell>
                <mxCell id="8" value="view their&lt;br&gt;&amp;nbsp;meberships&amp;nbsp;" style="ellipse;whiteSpace=wrap;html=1;" parent="1" vertex="1">
                    <mxGeometry x="320" y="170" width="130" height="70" as="geometry"/>
                </mxCell>
                <mxCell id="9" value="&amp;nbsp;Book fitness&lt;br&gt;&amp;nbsp;classes" style="ellipse;whiteSpace=wrap;html=1;" parent="1" vertex="1">
                    <mxGeometry x="160" y="270" width="120" height="60" as="geometry"/>
                </mxCell>
                <mxCell id="15" value="&lt;b&gt;Members&amp;nbsp;&lt;/b&gt;" style="text;html=1;align=center;verticalAlign=middle;resizable=0;points=[];autosize=1;strokeColor=none;fillColor=none;" parent="1" vertex="1">
                    <mxGeometry x="15" y="330" width="80" height="30" as="geometry"/>
                </mxCell>
                <mxCell id="17" value="Membership&lt;br&gt;status&amp;nbsp;" style="ellipse;whiteSpace=wrap;html=1;" parent="1" vertex="1">
                    <mxGeometry x="570" y="150" width="100" height="45" as="geometry"/>
                </mxCell>
                <mxCell id="19" value="&lt;b&gt;&amp;lt;&amp;lt;Include&amp;gt;&amp;gt;&lt;br&gt;&lt;/b&gt;" style="text;html=1;align=center;verticalAlign=middle;resizable=0;points=[];autosize=1;strokeColor=none;fillColor=none;rotation=-10;" parent="1" vertex="1">
                    <mxGeometry x="460" y="157.5" width="90" height="30" as="geometry"/>
                </mxCell>
                <mxCell id="21" value="cancellation&amp;nbsp;" style="ellipse;whiteSpace=wrap;html=1;" parent="1" vertex="1">
                    <mxGeometry x="560" y="250" width="100" height="40" as="geometry"/>
                </mxCell>
                <mxCell id="23" value="System&amp;nbsp;&lt;br&gt;Sign in" style="ellipse;whiteSpace=wrap;html=1;" parent="1" vertex="1">
                    <mxGeometry x="190" y="182.5" width="80" height="45" as="geometry"/>
                </mxCell>
                <mxCell id="25" value="&lt;span style=&quot;font-size: 10px;&quot;&gt;&amp;lt;&amp;lt;&lt;/span&gt;Extend&amp;gt;&amp;gt;" style="text;html=1;align=center;verticalAlign=middle;resizable=0;points=[];autosize=1;strokeColor=none;fillColor=none;rotation=30;" parent="1" vertex="1">
                    <mxGeometry x="460" y="210" width="90" height="30" as="geometry"/>
                </mxCell>
                <mxCell id="27" value="" style="endArrow=none;dashed=1;html=1;rounded=0;entryX=1;entryY=0.5;entryDx=0;entryDy=0;endFill=0;startArrow=block;startFill=0;exitX=0;exitY=0.5;exitDx=0;exitDy=0;" parent="1" source="21" target="8" edge="1">
                    <mxGeometry width="50" height="50" relative="1" as="geometry">
                        <mxPoint x="555" y="300" as="sourcePoint"/>
                        <mxPoint x="450" y="250" as="targetPoint"/>
                    </mxGeometry>
                </mxCell>
                <mxCell id="28" value="" style="endArrow=none;dashed=1;html=1;rounded=0;exitX=1;exitY=0.5;exitDx=0;exitDy=0;endFill=0;startArrow=block;startFill=0;entryX=0;entryY=0.5;entryDx=0;entryDy=0;" parent="1" source="8" target="17" edge="1">
                    <mxGeometry width="50" height="50" relative="1" as="geometry">
                        <mxPoint x="480" y="230" as="sourcePoint"/>
                        <mxPoint x="590" y="220" as="targetPoint"/>
                    </mxGeometry>
                </mxCell>
                <mxCell id="30" value="" style="endArrow=none;html=1;rounded=0;entryX=0;entryY=0.5;entryDx=0;entryDy=0;" parent="1" target="23" edge="1">
                    <mxGeometry width="50" height="50" relative="1" as="geometry">
                        <mxPoint x="70" y="280" as="sourcePoint"/>
                        <mxPoint x="255" y="127.5" as="targetPoint"/>
                        <Array as="points">
                            <mxPoint x="100" y="205"/>
                        </Array>
                    </mxGeometry>
                </mxCell>
                <mxCell id="31" value="" style="endArrow=none;html=1;rounded=0;entryX=0;entryY=0.5;entryDx=0;entryDy=0;exitX=1;exitY=0.3333333333333333;exitDx=0;exitDy=0;exitPerimeter=0;" parent="1" source="3" target="9" edge="1">
                    <mxGeometry width="50" height="50" relative="1" as="geometry">
                        <mxPoint x="130" y="355" as="sourcePoint"/>
                        <mxPoint x="230.00000000000182" y="280" as="targetPoint"/>
                        <Array as="points">
                            <mxPoint x="110" y="300"/>
                        </Array>
                    </mxGeometry>
                </mxCell>
                <mxCell id="32" value="" style="endArrow=none;html=1;rounded=0;exitX=1;exitY=0.3333333333333333;exitDx=0;exitDy=0;exitPerimeter=0;entryX=0;entryY=0.5;entryDx=0;entryDy=0;" parent="1" source="3" target="33" edge="1">
                    <mxGeometry width="50" height="50" relative="1" as="geometry">
                        <mxPoint x="100" y="425" as="sourcePoint"/>
                        <mxPoint x="200" y="380" as="targetPoint"/>
                        <Array as="points">
                            <mxPoint x="130" y="380"/>
                        </Array>
                    </mxGeometry>
                </mxCell>
                <mxCell id="33" value="Schedule&lt;br&gt;Training sessions&amp;nbsp;" style="ellipse;whiteSpace=wrap;html=1;" parent="1" vertex="1">
                    <mxGeometry x="200" y="350" width="110" height="60" as="geometry"/>
                </mxCell>
                <mxCell id="35" value="Booking&amp;nbsp;&lt;br&gt;confirmation&amp;nbsp;" style="ellipse;whiteSpace=wrap;html=1;" parent="1" vertex="1">
                    <mxGeometry x="340" y="270" width="110" height="60" as="geometry"/>
                </mxCell>
                <mxCell id="36" value="Booking&amp;nbsp;&lt;br&gt;confirmation&amp;nbsp;" style="ellipse;whiteSpace=wrap;html=1;" parent="1" vertex="1">
                    <mxGeometry x="370" y="350" width="110" height="60" as="geometry"/>
                </mxCell>
                <mxCell id="37" value="" style="endArrow=none;html=1;rounded=0;exitX=1;exitY=0.5;exitDx=0;exitDy=0;entryX=0;entryY=0.5;entryDx=0;entryDy=0;" parent="1" source="9" target="35" edge="1">
                    <mxGeometry width="50" height="50" relative="1" as="geometry">
                        <mxPoint x="270" y="280" as="sourcePoint"/>
                        <mxPoint x="330" y="300" as="targetPoint"/>
                        <Array as="points"/>
                    </mxGeometry>
                </mxCell>
                <mxCell id="38" value="" style="endArrow=none;html=1;rounded=0;entryX=0;entryY=0.5;entryDx=0;entryDy=0;" parent="1" target="36" edge="1">
                    <mxGeometry width="50" height="50" relative="1" as="geometry">
                        <mxPoint x="310" y="380" as="sourcePoint"/>
                        <mxPoint x="370" y="380" as="targetPoint"/>
                        <Array as="points">
                            <mxPoint x="320" y="380"/>
                        </Array>
                    </mxGeometry>
                </mxCell>
                <mxCell id="39" value="Booking id" style="ellipse;whiteSpace=wrap;html=1;" parent="1" vertex="1">
                    <mxGeometry x="570" y="315" width="100" height="45" as="geometry"/>
                </mxCell>
                <mxCell id="40" value="&lt;b&gt;&amp;lt;&amp;lt;Include&amp;gt;&amp;gt;&lt;br&gt;&lt;/b&gt;" style="text;html=1;align=center;verticalAlign=middle;resizable=0;points=[];autosize=1;strokeColor=none;fillColor=none;rotation=15;" parent="1" vertex="1">
                    <mxGeometry x="470" y="290" width="90" height="30" as="geometry"/>
                </mxCell>
                <mxCell id="41" value="" style="endArrow=none;dashed=1;html=1;rounded=0;exitX=1;exitY=0.5;exitDx=0;exitDy=0;endFill=0;startArrow=block;startFill=0;entryX=0;entryY=0.5;entryDx=0;entryDy=0;" parent="1" source="35" target="39" edge="1">
                    <mxGeometry width="50" height="50" relative="1" as="geometry">
                        <mxPoint x="439.99999999999864" y="322.5" as="sourcePoint"/>
                        <mxPoint x="569.9999999999961" y="290" as="targetPoint"/>
                    </mxGeometry>
                </mxCell>
                <mxCell id="42" value="Booking id" style="ellipse;whiteSpace=wrap;html=1;" parent="1" vertex="1">
                    <mxGeometry x="600" y="395" width="100" height="45" as="geometry"/>
                </mxCell>
                <mxCell id="45" value="" style="endArrow=none;html=1;rounded=0;exitX=1;exitY=0.3333333333333333;exitDx=0;exitDy=0;exitPerimeter=0;entryX=0;entryY=0.5;entryDx=0;entryDy=0;" parent="1" source="3" target="46" edge="1">
                    <mxGeometry width="50" height="50" relative="1" as="geometry">
                        <mxPoint x="60" y="315" as="sourcePoint"/>
                        <mxPoint x="200" y="460" as="targetPoint"/>
                        <Array as="points">
                            <mxPoint x="120" y="460"/>
                        </Array>
                    </mxGeometry>
                </mxCell>
                <mxCell id="46" value="Bring&lt;br&gt;clients/Guests" style="ellipse;whiteSpace=wrap;html=1;" parent="1" vertex="1">
                    <mxGeometry x="200" y="430" width="110" height="60" as="geometry"/>
                </mxCell>
                <mxCell id="48" value="" style="endArrow=none;html=1;rounded=0;entryX=0;entryY=0.5;entryDx=0;entryDy=0;exitX=1;exitY=0.5;exitDx=0;exitDy=0;" parent="1" source="46" target="49" edge="1">
                    <mxGeometry width="50" height="50" relative="1" as="geometry">
                        <mxPoint x="310" y="459.71" as="sourcePoint"/>
                        <mxPoint x="370.0000000000016" y="459.71" as="targetPoint"/>
                        <Array as="points"/>
                    </mxGeometry>
                </mxCell>
                <mxCell id="49" value="Guest&amp;nbsp;&lt;br&gt;Registeration&amp;nbsp;" style="ellipse;whiteSpace=wrap;html=1;" parent="1" vertex="1">
                    <mxGeometry x="400" y="450" width="110" height="60" as="geometry"/>
                </mxCell>
                <mxCell id="50" value="" style="endArrow=none;html=1;rounded=0;exitX=1;exitY=0.3333333333333333;exitDx=0;exitDy=0;exitPerimeter=0;entryX=0;entryY=0.5;entryDx=0;entryDy=0;" parent="1" source="3" target="51" edge="1">
                    <mxGeometry width="50" height="50" relative="1" as="geometry">
                        <mxPoint x="70" y="350" as="sourcePoint"/>
                        <mxPoint x="230" y="520" as="targetPoint"/>
                        <Array as="points">
                            <mxPoint x="100" y="520"/>
                        </Array>
                    </mxGeometry>
                </mxCell>
                <mxCell id="51" value="create&amp;nbsp;&lt;br&gt;workout plans&amp;nbsp;" style="ellipse;whiteSpace=wrap;html=1;" parent="1" vertex="1">
                    <mxGeometry x="220" y="500" width="100" height="50" as="geometry"/>
                </mxCell>
                <mxCell id="52" value="Actor" style="shape=umlActor;verticalLabelPosition=bottom;verticalAlign=top;html=1;outlineConnect=0;" parent="1" vertex="1">
                    <mxGeometry x="30" y="650" width="30" height="60" as="geometry"/>
                </mxCell>
                <mxCell id="53" value="Guests&amp;nbsp;" style="text;html=1;align=center;verticalAlign=middle;resizable=0;points=[];autosize=1;strokeColor=none;fillColor=none;" parent="1" vertex="1">
                    <mxGeometry x="15" y="720" width="60" height="30" as="geometry"/>
                </mxCell>
                <mxCell id="54" value="Register /view&amp;nbsp;&lt;br&gt;membership palans" style="ellipse;whiteSpace=wrap;html=1;" parent="1" vertex="1">
                    <mxGeometry x="295" y="579.4300000000001" width="130" height="70" as="geometry"/>
                </mxCell>
                <mxCell id="55" value="System&amp;nbsp;&lt;br&gt;check in" style="ellipse;whiteSpace=wrap;html=1;" parent="1" vertex="1">
                    <mxGeometry x="160" y="591.9300000000001" width="80" height="45" as="geometry"/>
                </mxCell>
                <mxCell id="57" value="" style="endArrow=none;html=1;rounded=0;entryX=0;entryY=0.5;entryDx=0;entryDy=0;exitX=1;exitY=0.3333333333333333;exitDx=0;exitDy=0;exitPerimeter=0;" parent="1" source="52" target="55" edge="1">
                    <mxGeometry width="50" height="50" relative="1" as="geometry">
                        <mxPoint x="95" y="689.4300000000001" as="sourcePoint"/>
                        <mxPoint x="280" y="536.9300000000001" as="targetPoint"/>
                        <Array as="points">
                            <mxPoint x="125" y="614.4300000000001"/>
                        </Array>
                    </mxGeometry>
                </mxCell>
                <mxCell id="58" value="" style="endArrow=none;html=1;rounded=0;entryX=0;entryY=0.5;entryDx=0;entryDy=0;exitX=1;exitY=0.3333333333333333;exitDx=0;exitDy=0;exitPerimeter=0;" parent="1" source="52" target="62" edge="1">
                    <mxGeometry width="50" height="50" relative="1" as="geometry">
                        <mxPoint x="95" y="689.4300000000001" as="sourcePoint"/>
                        <mxPoint x="185" y="709.4300000000001" as="targetPoint"/>
                        <Array as="points">
                            <mxPoint x="130" y="688"/>
                        </Array>
                    </mxGeometry>
                </mxCell>
                <mxCell id="60" value="" style="endArrow=none;html=1;rounded=0;entryX=0;entryY=0.5;entryDx=0;entryDy=0;exitX=1;exitY=0.5;exitDx=0;exitDy=0;" parent="1" source="23" target="8" edge="1">
                    <mxGeometry width="50" height="50" relative="1" as="geometry">
                        <mxPoint x="180" y="195" as="sourcePoint"/>
                        <mxPoint x="319.9999999999982" y="195" as="targetPoint"/>
                        <Array as="points"/>
                    </mxGeometry>
                </mxCell>
                <mxCell id="61" value="" style="endArrow=none;html=1;rounded=0;entryX=0;entryY=0.5;entryDx=0;entryDy=0;exitX=1;exitY=0.5;exitDx=0;exitDy=0;" parent="1" source="55" target="54" edge="1">
                    <mxGeometry width="50" height="50" relative="1" as="geometry">
                        <mxPoint x="290" y="640" as="sourcePoint"/>
                        <mxPoint x="359.9999999999982" y="591.9300000000001" as="targetPoint"/>
                        <Array as="points"/>
                    </mxGeometry>
                </mxCell>
                <mxCell id="62" value="Access&amp;nbsp;&lt;br&gt;Gym" style="ellipse;whiteSpace=wrap;html=1;" parent="1" vertex="1">
                    <mxGeometry x="160" y="665" width="80" height="45" as="geometry"/>
                </mxCell>
                <mxCell id="64" value="" style="endArrow=none;html=1;rounded=0;entryX=0;entryY=0.5;entryDx=0;entryDy=0;exitX=0.5;exitY=1;exitDx=0;exitDy=0;" parent="1" source="49" edge="1">
                    <mxGeometry width="50" height="50" relative="1" as="geometry">
                        <mxPoint x="329.9999999999984" y="550" as="sourcePoint"/>
                        <mxPoint x="390.0000000000016" y="580" as="targetPoint"/>
                        <Array as="points"/>
                    </mxGeometry>
                </mxCell>
                <mxCell id="65" value="" style="endArrow=none;html=1;rounded=0;exitX=1;exitY=0.3333333333333333;exitDx=0;exitDy=0;exitPerimeter=0;entryX=0;entryY=0.5;entryDx=0;entryDy=0;" parent="1" source="52" target="66" edge="1">
                    <mxGeometry width="50" height="50" relative="1" as="geometry">
                        <mxPoint x="50" y="680" as="sourcePoint"/>
                        <mxPoint x="170" y="770" as="targetPoint"/>
                        <Array as="points">
                            <mxPoint x="110" y="750"/>
                        </Array>
                    </mxGeometry>
                </mxCell>
                <mxCell id="66" value="Become&amp;nbsp;&lt;br&gt;member&amp;nbsp;" style="ellipse;whiteSpace=wrap;html=1;" parent="1" vertex="1">
                    <mxGeometry x="160" y="730" width="80" height="45" as="geometry"/>
                </mxCell>
                <mxCell id="68" value="Equipments&amp;nbsp;" style="ellipse;whiteSpace=wrap;html=1;" parent="1" vertex="1">
                    <mxGeometry x="320" y="665" width="80" height="45" as="geometry"/>
                </mxCell>
                <mxCell id="69" value="ongoing&amp;nbsp;&lt;br&gt;Sessions&amp;nbsp;" style="ellipse;whiteSpace=wrap;html=1;" parent="1" vertex="1">
                    <mxGeometry x="320" y="720" width="80" height="45" as="geometry"/>
                </mxCell>
                <mxCell id="70" value="classes" style="ellipse;whiteSpace=wrap;html=1;" parent="1" vertex="1">
                    <mxGeometry x="320" y="780" width="80" height="45" as="geometry"/>
                </mxCell>
                <mxCell id="71" value="" style="endArrow=none;html=1;rounded=0;entryX=0;entryY=0.5;entryDx=0;entryDy=0;" parent="1" target="70" edge="1">
                    <mxGeometry width="50" height="50" relative="1" as="geometry">
                        <mxPoint x="240" y="690" as="sourcePoint"/>
                        <mxPoint x="310" y="775" as="targetPoint"/>
                        <Array as="points">
                            <mxPoint x="270" y="803"/>
                        </Array>
                    </mxGeometry>
                </mxCell>
                <mxCell id="72" value="" style="endArrow=none;html=1;rounded=0;entryX=0;entryY=0.5;entryDx=0;entryDy=0;exitX=1;exitY=0.5;exitDx=0;exitDy=0;" parent="1" source="62" target="69" edge="1">
                    <mxGeometry width="50" height="50" relative="1" as="geometry">
                        <mxPoint x="255" y="720" as="sourcePoint"/>
                        <mxPoint x="310" y="720" as="targetPoint"/>
                        <Array as="points">
                            <mxPoint x="280" y="743"/>
                        </Array>
                    </mxGeometry>
                </mxCell>
                <mxCell id="73" value="" style="endArrow=none;html=1;rounded=0;entryX=0;entryY=0.5;entryDx=0;entryDy=0;" parent="1" target="68" edge="1">
                    <mxGeometry width="50" height="50" relative="1" as="geometry">
                        <mxPoint x="240" y="688" as="sourcePoint"/>
                        <mxPoint x="297.5" y="687.08" as="targetPoint"/>
                        <Array as="points"/>
                    </mxGeometry>
                </mxCell>
                <mxCell id="74" value="Actor" style="shape=umlActor;verticalLabelPosition=bottom;verticalAlign=top;html=1;outlineConnect=0;" parent="1" vertex="1">
                    <mxGeometry x="-30" y="1075.57" width="30" height="60" as="geometry"/>
                </mxCell>
                <mxCell id="75" value="Register /view&amp;nbsp;&lt;br&gt;membership palans" style="ellipse;whiteSpace=wrap;html=1;" parent="1" vertex="1">
                    <mxGeometry x="350" y="880.57" width="130" height="70" as="geometry"/>
                </mxCell>
                <mxCell id="76" value="Fitness classes&amp;nbsp;" style="ellipse;whiteSpace=wrap;html=1;" parent="1" vertex="1">
                    <mxGeometry x="240" y="895" width="80" height="45" as="geometry"/>
                </mxCell>
                <mxCell id="77" value="" style="endArrow=none;html=1;rounded=0;entryX=0;entryY=0.5;entryDx=0;entryDy=0;exitX=1;exitY=0.3333333333333333;exitDx=0;exitDy=0;exitPerimeter=0;" parent="1" source="74" target="76" edge="1">
                    <mxGeometry width="50" height="50" relative="1" as="geometry">
                        <mxPoint x="95" y="990" as="sourcePoint"/>
                        <mxPoint x="280" y="837.5" as="targetPoint"/>
                        <Array as="points">
                            <mxPoint x="125" y="915"/>
                        </Array>
                    </mxGeometry>
                </mxCell>
                <mxCell id="78" value="" style="endArrow=none;html=1;rounded=0;entryX=0;entryY=0.5;entryDx=0;entryDy=0;exitX=1;exitY=0.3333333333333333;exitDx=0;exitDy=0;exitPerimeter=0;" parent="1" source="74" target="80" edge="1">
                    <mxGeometry width="50" height="50" relative="1" as="geometry">
                        <mxPoint x="95" y="990" as="sourcePoint"/>
                        <mxPoint x="185" y="1010" as="targetPoint"/>
                        <Array as="points">
                            <mxPoint x="130" y="999"/>
                        </Array>
                    </mxGeometry>
                </mxCell>
                <mxCell id="79" value="" style="endArrow=none;html=1;rounded=0;entryX=0;entryY=0.5;entryDx=0;entryDy=0;exitX=1;exitY=0.5;exitDx=0;exitDy=0;" parent="1" source="76" target="75" edge="1">
                    <mxGeometry width="50" height="50" relative="1" as="geometry">
                        <mxPoint x="290" y="940.5699999999999" as="sourcePoint"/>
                        <mxPoint x="359.9999999999982" y="892.5" as="targetPoint"/>
                        <Array as="points"/>
                    </mxGeometry>
                </mxCell>
                <mxCell id="80" value="training Sessions&amp;nbsp;" style="ellipse;whiteSpace=wrap;html=1;" parent="1" vertex="1">
                    <mxGeometry x="190" y="976.1400000000001" width="90" height="45" as="geometry"/>
                </mxCell>
                <mxCell id="81" value="" style="endArrow=none;html=1;rounded=0;exitX=1;exitY=0.3333333333333333;exitDx=0;exitDy=0;exitPerimeter=0;entryX=0;entryY=0.5;entryDx=0;entryDy=0;" parent="1" source="74" target="82" edge="1">
                    <mxGeometry width="50" height="50" relative="1" as="geometry">
                        <mxPoint x="50" y="980.5699999999999" as="sourcePoint"/>
                        <mxPoint x="170" y="1070.57" as="targetPoint"/>
                        <Array as="points">
                            <mxPoint x="110" y="1050.57"/>
                        </Array>
                    </mxGeometry>
                </mxCell>
                <mxCell id="82" value="Equipments&amp;nbsp;&lt;br&gt;Rentals&amp;nbsp;" style="ellipse;whiteSpace=wrap;html=1;" parent="1" vertex="1">
                    <mxGeometry x="190" y="1030.57" width="90" height="45" as="geometry"/>
                </mxCell>
                <mxCell id="83" value="Members&amp;nbsp;&lt;br&gt;Records&amp;nbsp;" style="ellipse;whiteSpace=wrap;html=1;" parent="1" vertex="1">
                    <mxGeometry x="320" y="985.5699999999999" width="80" height="45" as="geometry"/>
                </mxCell>
                <mxCell id="85" value="Health Assessments&amp;nbsp;" style="ellipse;whiteSpace=wrap;html=1;" parent="1" vertex="1">
                    <mxGeometry x="210" y="1089.99" width="100" height="60" as="geometry"/>
                </mxCell>
                <mxCell id="86" value="" style="endArrow=none;html=1;rounded=0;exitX=1;exitY=0.3333333333333333;exitDx=0;exitDy=0;exitPerimeter=0;entryX=0;entryY=0.5;entryDx=0;entryDy=0;" parent="1" source="74" target="85" edge="1">
                    <mxGeometry width="50" height="50" relative="1" as="geometry">
                        <mxPoint x="60" y="966" as="sourcePoint"/>
                        <mxPoint x="130" y="1160" as="targetPoint"/>
                        <Array as="points">
                            <mxPoint x="110" y="1120"/>
                        </Array>
                    </mxGeometry>
                </mxCell>
                <mxCell id="88" value="" style="endArrow=none;html=1;rounded=0;entryX=1;entryY=0.5;entryDx=0;entryDy=0;exitX=0;exitY=0.5;exitDx=0;exitDy=0;" parent="1" source="83" target="80" edge="1">
                    <mxGeometry width="50" height="50" relative="1" as="geometry">
                        <mxPoint x="320" y="990" as="sourcePoint"/>
                        <mxPoint x="510" y="1010.57" as="targetPoint"/>
                        <Array as="points"/>
                    </mxGeometry>
                </mxCell>
                <mxCell id="91" value="Fitness&amp;nbsp;&lt;br&gt;Center&amp;nbsp;" style="text;html=1;align=center;verticalAlign=middle;resizable=0;points=[];autosize=1;strokeColor=none;fillColor=none;" parent="1" vertex="1">
                    <mxGeometry x="-50" y="1160" width="70" height="40" as="geometry"/>
                </mxCell>
                <mxCell id="92" value="" style="endArrow=none;html=1;rounded=0;entryX=1;entryY=0.5;entryDx=0;entryDy=0;exitX=0;exitY=0.5;exitDx=0;exitDy=0;" parent="1" source="83" target="82" edge="1">
                    <mxGeometry width="50" height="50" relative="1" as="geometry">
                        <mxPoint x="320" y="1053" as="sourcePoint"/>
                        <mxPoint x="245" y="1052.1100000000001" as="targetPoint"/>
                        <Array as="points"/>
                    </mxGeometry>
                </mxCell>
                <mxCell id="93" value="&lt;b&gt;&amp;lt;&amp;lt;Include&amp;gt;&amp;gt;&lt;br&gt;&lt;/b&gt;" style="text;html=1;align=center;verticalAlign=middle;resizable=0;points=[];autosize=1;strokeColor=none;fillColor=none;rotation=15;" parent="1" vertex="1">
                    <mxGeometry x="500" y="370" width="90" height="30" as="geometry"/>
                </mxCell>
                <mxCell id="94" value="" style="endArrow=none;dashed=1;html=1;rounded=0;endFill=0;startArrow=block;startFill=0;entryX=0;entryY=0.5;entryDx=0;entryDy=0;" parent="1" edge="1">
                    <mxGeometry width="50" height="50" relative="1" as="geometry">
                        <mxPoint x="480" y="380" as="sourcePoint"/>
                        <mxPoint x="600" y="417.5" as="targetPoint"/>
                    </mxGeometry>
                </mxCell>
                <mxCell id="95" value="&lt;b&gt;&amp;lt;&amp;lt;Include&amp;gt;&amp;gt;&lt;br&gt;&lt;/b&gt;" style="text;html=1;align=center;verticalAlign=middle;resizable=0;points=[];autosize=1;strokeColor=none;fillColor=none;rotation=-30;" parent="1" vertex="1">
                    <mxGeometry x="400" y="950.57" width="90" height="30" as="geometry"/>
                </mxCell>
                <mxCell id="96" value="" style="endArrow=none;dashed=1;html=1;rounded=0;endFill=0;startArrow=block;startFill=0;exitX=1;exitY=0.5;exitDx=0;exitDy=0;entryX=0;entryY=0.5;entryDx=0;entryDy=0;" parent="1" source="83" target="97" edge="1">
                    <mxGeometry width="50" height="50" relative="1" as="geometry">
                        <mxPoint x="390" y="1000" as="sourcePoint"/>
                        <mxPoint x="490" y="1030" as="targetPoint"/>
                    </mxGeometry>
                </mxCell>
                <mxCell id="97" value="pay slips&amp;nbsp;" style="ellipse;whiteSpace=wrap;html=1;" parent="1" vertex="1">
                    <mxGeometry x="570" y="885.57" width="115" height="54.43" as="geometry"/>
                </mxCell>
                <mxCell id="98" value="" style="endArrow=none;dashed=1;html=1;rounded=0;endFill=0;startArrow=block;startFill=0;entryX=0;entryY=0.5;entryDx=0;entryDy=0;exitX=1;exitY=0.5;exitDx=0;exitDy=0;" parent="1" source="83" target="99" edge="1">
                    <mxGeometry width="50" height="50" relative="1" as="geometry">
                        <mxPoint x="390" y="1010" as="sourcePoint"/>
                        <mxPoint x="460" y="1040" as="targetPoint"/>
                    </mxGeometry>
                </mxCell>
                <mxCell id="99" value="Equipment&lt;br&gt;Records&amp;nbsp;" style="ellipse;whiteSpace=wrap;html=1;" parent="1" vertex="1">
                    <mxGeometry x="562.5" y="1030.5700000000002" width="115" height="54.43" as="geometry"/>
                </mxCell>
                <mxCell id="100" value="&lt;b&gt;&amp;lt;&amp;lt;Include&amp;gt;&amp;gt;&lt;br&gt;&lt;/b&gt;" style="text;html=1;align=center;verticalAlign=middle;resizable=0;points=[];autosize=1;strokeColor=none;fillColor=none;rotation=15;" parent="1" vertex="1">
                    <mxGeometry x="450" y="1010" width="90" height="30" as="geometry"/>
                </mxCell>
                <mxCell id="101" value="" style="endArrow=none;html=1;rounded=0;exitX=1;exitY=0.3333333333333333;exitDx=0;exitDy=0;exitPerimeter=0;entryX=0;entryY=0.5;entryDx=0;entryDy=0;" parent="1" source="74" target="102" edge="1">
                    <mxGeometry width="50" height="50" relative="1" as="geometry">
                        <mxPoint x="50" y="1000.5700000000002" as="sourcePoint"/>
                        <mxPoint x="150" y="1170" as="targetPoint"/>
                        <Array as="points">
                            <mxPoint x="110" y="1203"/>
                        </Array>
                    </mxGeometry>
                </mxCell>
                <mxCell id="102" value="Workout&amp;nbsp;&lt;br&gt;Routines" style="ellipse;whiteSpace=wrap;html=1;" parent="1" vertex="1">
                    <mxGeometry x="210" y="1172.78" width="100" height="60" as="geometry"/>
                </mxCell>
                <mxCell id="103" value="Members Health&amp;nbsp;&lt;br&gt;Records&lt;span style=&quot;color: rgba(0, 0, 0, 0); font-family: monospace; font-size: 0px; text-align: start;&quot;&gt;%3CmxGraphModel%3E%3Croot%3E%3CmxCell%20id%3D%220%22%2F%3E%3CmxCell%20id%3D%221%22%20parent%3D%220%22%2F%3E%3CmxCell%20id%3D%222%22%20value%3D%22Members%20Health%26amp%3Bnbsp%3B%26lt%3Bbr%26gt%3BRecords%22%20style%3D%22ellipse%3BwhiteSpace%3Dwrap%3Bhtml%3D1%3B%22%20vertex%3D%221%22%20parent%3D%221%22%3E%3CmxGeometry%20x%3D%22460%22%20y%3D%221092.7800000000002%22%20width%3D%22115%22%20height%3D%2254.43%22%20as%3D%22geometry%22%2F%3E%3C%2FmxCell%3E%3C%2Froot%3E%3C%2FmxGraphModel%3E&lt;/span&gt;" style="ellipse;whiteSpace=wrap;html=1;" parent="1" vertex="1">
                    <mxGeometry x="460" y="1092.7800000000002" width="115" height="54.43" as="geometry"/>
                </mxCell>
                <mxCell id="104" value="&lt;b&gt;&amp;lt;&amp;lt;Include&amp;gt;&amp;gt;&lt;br&gt;&lt;/b&gt;" style="text;html=1;align=center;verticalAlign=middle;resizable=0;points=[];autosize=1;strokeColor=none;fillColor=none;rotation=0;" parent="1" vertex="1">
                    <mxGeometry x="310" y="1340" width="90" height="30" as="geometry"/>
                </mxCell>
                <mxCell id="105" value="" style="endArrow=none;dashed=1;html=1;rounded=0;endFill=0;startArrow=block;startFill=0;exitX=1;exitY=0.5;exitDx=0;exitDy=0;entryX=0;entryY=0.5;entryDx=0;entryDy=0;" parent="1" source="85" target="103" edge="1">
                    <mxGeometry width="50" height="50" relative="1" as="geometry">
                        <mxPoint x="270" y="1160.8600000000001" as="sourcePoint"/>
                        <mxPoint x="359.99999999999955" y="1110.0049999999999" as="targetPoint"/>
                    </mxGeometry>
                </mxCell>
                <mxCell id="106" value="Members Attendences" style="ellipse;whiteSpace=wrap;html=1;" parent="1" vertex="1">
                    <mxGeometry x="375" y="1175.5600000000002" width="115" height="54.43" as="geometry"/>
                </mxCell>
                <mxCell id="107" value="" style="endArrow=none;html=1;rounded=0;entryX=1;entryY=0.5;entryDx=0;entryDy=0;exitX=0;exitY=0.5;exitDx=0;exitDy=0;" parent="1" source="106" target="102" edge="1">
                    <mxGeometry width="50" height="50" relative="1" as="geometry">
                        <mxPoint x="320" y="1200" as="sourcePoint"/>
                        <mxPoint x="255" y="1245.0000000000002" as="targetPoint"/>
                        <Array as="points"/>
                    </mxGeometry>
                </mxCell>
                <mxCell id="108" value="System&amp;nbsp;&lt;br&gt;Tracking&amp;nbsp;" style="ellipse;whiteSpace=wrap;html=1;" parent="1" vertex="1">
                    <mxGeometry x="140" y="1260" width="100" height="60" as="geometry"/>
                </mxCell>
                <mxCell id="109" value="" style="endArrow=none;html=1;rounded=0;exitX=1;exitY=0.3333333333333333;exitDx=0;exitDy=0;exitPerimeter=0;entryX=0;entryY=0.5;entryDx=0;entryDy=0;" parent="1" source="74" target="108" edge="1">
                    <mxGeometry width="50" height="50" relative="1" as="geometry">
                        <mxPoint x="40" y="1065.0000000000002" as="sourcePoint"/>
                        <mxPoint x="135" y="1294.43" as="targetPoint"/>
                        <Array as="points">
                            <mxPoint x="90" y="1290"/>
                        </Array>
                    </mxGeometry>
                </mxCell>
                <mxCell id="110" value="Staff&amp;nbsp;&lt;br&gt;information&amp;nbsp;" style="ellipse;whiteSpace=wrap;html=1;" parent="1" vertex="1">
                    <mxGeometry x="290" y="1260" width="100" height="60" as="geometry"/>
                </mxCell>
                <mxCell id="112" value="" style="endArrow=none;html=1;rounded=0;entryX=1;entryY=0.5;entryDx=0;entryDy=0;exitX=0;exitY=0.5;exitDx=0;exitDy=0;" parent="1" source="110" target="108" edge="1">
                    <mxGeometry width="50" height="50" relative="1" as="geometry">
                        <mxPoint x="302.5" y="1300" as="sourcePoint"/>
                        <mxPoint x="237.5" y="1300" as="targetPoint"/>
                        <Array as="points"/>
                    </mxGeometry>
                </mxCell>
                <mxCell id="113" value="Actor" style="shape=umlActor;verticalLabelPosition=bottom;verticalAlign=top;html=1;outlineConnect=0;" parent="1" vertex="1">
                    <mxGeometry x="1300" y="250" width="50" height="80" as="geometry"/>
                </mxCell>
                <mxCell id="119" value="" style="endArrow=none;html=1;rounded=0;entryX=0;entryY=0.5;entryDx=0;entryDy=0;" parent="1" target="120" edge="1">
                    <mxGeometry width="50" height="50" relative="1" as="geometry">
                        <mxPoint y="1090" as="sourcePoint"/>
                        <mxPoint x="170" y="1337.2000000000003" as="targetPoint"/>
                        <Array as="points">
                            <mxPoint x="70" y="1360"/>
                        </Array>
                    </mxGeometry>
                </mxCell>
                <mxCell id="120" value="Payments&amp;nbsp;&lt;br&gt;and&amp;nbsp;&lt;br&gt;Memberships&amp;nbsp;" style="ellipse;whiteSpace=wrap;html=1;" parent="1" vertex="1">
                    <mxGeometry x="170" y="1330" width="110" height="70" as="geometry"/>
                </mxCell>
                <mxCell id="121" value="Invoices&amp;nbsp;" style="ellipse;whiteSpace=wrap;html=1;" parent="1" vertex="1">
                    <mxGeometry x="420" y="1335" width="100" height="65" as="geometry"/>
                </mxCell>
                <mxCell id="122" value="" style="endArrow=none;dashed=1;html=1;rounded=0;endFill=0;startArrow=block;startFill=0;exitX=1;exitY=0.5;exitDx=0;exitDy=0;entryX=0;entryY=0.5;entryDx=0;entryDy=0;" parent="1" source="120" target="121" edge="1">
                    <mxGeometry width="50" height="50" relative="1" as="geometry">
                        <mxPoint x="275" y="1369.5800000000002" as="sourcePoint"/>
                        <mxPoint x="424.9999999999891" y="1369.5849999999998" as="targetPoint"/>
                        <Array as="points"/>
                    </mxGeometry>
                </mxCell>
                <mxCell id="123" value="&lt;b&gt;&amp;lt;&amp;lt;Include&amp;gt;&amp;gt;&lt;br&gt;&lt;/b&gt;" style="text;html=1;align=center;verticalAlign=middle;resizable=0;points=[];autosize=1;strokeColor=none;fillColor=none;rotation=0;" parent="1" vertex="1">
                    <mxGeometry x="340" y="1092.78" width="90" height="30" as="geometry"/>
                </mxCell>
                <mxCell id="124" value="Membership&amp;nbsp;&lt;br&gt;Status" style="ellipse;whiteSpace=wrap;html=1;" parent="1" vertex="1">
                    <mxGeometry x="383.75" y="1440" width="122.5" height="60" as="geometry"/>
                </mxCell>
                <mxCell id="125" value="" style="endArrow=none;dashed=1;html=1;rounded=0;endFill=0;startArrow=block;startFill=0;exitX=1.023;exitY=0.593;exitDx=0;exitDy=0;exitPerimeter=0;entryX=0;entryY=0.5;entryDx=0;entryDy=0;" parent="1" source="120" target="124" edge="1">
                    <mxGeometry width="50" height="50" relative="1" as="geometry">
                        <mxPoint x="235" y="1450" as="sourcePoint"/>
                        <mxPoint x="370" y="1460" as="targetPoint"/>
                        <Array as="points"/>
                    </mxGeometry>
                </mxCell>
                <mxCell id="126" value="&lt;b&gt;&amp;lt;&amp;lt;Include&amp;gt;&amp;gt;&lt;br&gt;&lt;/b&gt;" style="text;html=1;align=center;verticalAlign=middle;resizable=0;points=[];autosize=1;strokeColor=none;fillColor=none;rotation=45;" parent="1" vertex="1">
                    <mxGeometry x="300" y="1400" width="90" height="30" as="geometry"/>
                </mxCell>
                <mxCell id="127" value="Instructor" style="text;html=1;align=center;verticalAlign=middle;resizable=0;points=[];autosize=1;strokeColor=none;fillColor=none;" parent="1" vertex="1">
                    <mxGeometry x="1290" y="360" width="70" height="30" as="geometry"/>
                </mxCell>
                <mxCell id="128" value="System&amp;nbsp;&lt;br&gt;Sign in" style="ellipse;whiteSpace=wrap;html=1;" parent="1" vertex="1">
                    <mxGeometry x="1060" y="182.5" width="80" height="45" as="geometry"/>
                </mxCell>
                <mxCell id="129" value="" style="endArrow=none;html=1;rounded=0;entryX=0.948;entryY=0.293;entryDx=0;entryDy=0;exitX=0;exitY=0.3333333333333333;exitDx=0;exitDy=0;exitPerimeter=0;entryPerimeter=0;" parent="1" source="113" target="128" edge="1">
                    <mxGeometry width="50" height="50" relative="1" as="geometry">
                        <mxPoint x="1280" y="285" as="sourcePoint"/>
                        <mxPoint x="1400" y="210" as="targetPoint"/>
                        <Array as="points">
                            <mxPoint x="1250" y="196"/>
                        </Array>
                    </mxGeometry>
                </mxCell>
                <mxCell id="130" value="" style="endArrow=none;html=1;rounded=0;entryX=1;entryY=0.5;entryDx=0;entryDy=0;exitX=0;exitY=0.3333333333333333;exitDx=0;exitDy=0;exitPerimeter=0;" parent="1" source="113" target="131" edge="1">
                    <mxGeometry width="50" height="50" relative="1" as="geometry">
                        <mxPoint x="1490" y="260" as="sourcePoint"/>
                        <mxPoint x="1320" y="290" as="targetPoint"/>
                        <Array as="points">
                            <mxPoint x="1260" y="300"/>
                        </Array>
                    </mxGeometry>
                </mxCell>
                <mxCell id="131" value="schedule&amp;nbsp;&lt;br&gt;Fitness classes&amp;nbsp;" style="ellipse;whiteSpace=wrap;html=1;" parent="1" vertex="1">
                    <mxGeometry x="1050" y="263.75" width="110" height="72.5" as="geometry"/>
                </mxCell>
                <mxCell id="132" value="" style="endArrow=none;html=1;rounded=0;entryX=1;entryY=0.5;entryDx=0;entryDy=0;exitX=0;exitY=0.3333333333333333;exitDx=0;exitDy=0;exitPerimeter=0;" parent="1" source="113" target="133" edge="1">
                    <mxGeometry width="50" height="50" relative="1" as="geometry">
                        <mxPoint x="1290" y="260" as="sourcePoint"/>
                        <mxPoint x="1380" y="420" as="targetPoint"/>
                        <Array as="points">
                            <mxPoint x="1250" y="390"/>
                        </Array>
                    </mxGeometry>
                </mxCell>
                <mxCell id="133" value="Manage &lt;br&gt;workshops" style="ellipse;whiteSpace=wrap;html=1;" parent="1" vertex="1">
                    <mxGeometry x="1030" y="360" width="110" height="60" as="geometry"/>
                </mxCell>
                <mxCell id="134" value="" style="endArrow=none;dashed=1;html=1;rounded=0;entryX=0;entryY=0.5;entryDx=0;entryDy=0;endFill=0;startArrow=block;startFill=0;exitX=1;exitY=0.5;exitDx=0;exitDy=0;" parent="1" source="135" target="131" edge="1">
                    <mxGeometry width="50" height="50" relative="1" as="geometry">
                        <mxPoint x="1100" y="290" as="sourcePoint"/>
                        <mxPoint x="1080" y="237.5" as="targetPoint"/>
                    </mxGeometry>
                </mxCell>
                <mxCell id="135" value="Guest&amp;nbsp;&lt;br&gt;Attendence&amp;nbsp;" style="ellipse;whiteSpace=wrap;html=1;" parent="1" vertex="1">
                    <mxGeometry x="770" y="273.75" width="110" height="56.25" as="geometry"/>
                </mxCell>
                <mxCell id="136" value="&amp;lt;&amp;lt;Extend&amp;gt;&amp;gt;" style="text;html=1;align=center;verticalAlign=middle;resizable=0;points=[];autosize=1;strokeColor=none;fillColor=none;" parent="1" vertex="1">
                    <mxGeometry x="910" y="270" width="90" height="30" as="geometry"/>
                </mxCell>
                <mxCell id="137" value="" style="endArrow=none;dashed=1;html=1;rounded=0;entryX=1;entryY=0.5;entryDx=0;entryDy=0;endFill=0;startArrow=block;startFill=0;exitX=0;exitY=0.5;exitDx=0;exitDy=0;" parent="1" source="131" target="138" edge="1">
                    <mxGeometry width="50" height="50" relative="1" as="geometry">
                        <mxPoint x="1230" y="290" as="sourcePoint"/>
                        <mxPoint x="1240" y="323.13" as="targetPoint"/>
                    </mxGeometry>
                </mxCell>
                <mxCell id="138" value="Members&lt;br&gt;Info&amp;nbsp;" style="ellipse;whiteSpace=wrap;html=1;" parent="1" vertex="1">
                    <mxGeometry x="780" y="360" width="110" height="46.25" as="geometry"/>
                </mxCell>
                <mxCell id="139" value="&lt;b&gt;&amp;lt;&amp;lt;Include&amp;gt;&amp;gt;&lt;br&gt;&lt;/b&gt;" style="text;html=1;align=center;verticalAlign=middle;resizable=0;points=[];autosize=1;strokeColor=none;fillColor=none;rotation=-30;" parent="1" vertex="1">
                    <mxGeometry x="900" y="330" width="90" height="30" as="geometry"/>
                </mxCell>
                <mxCell id="140" value="Check in/&lt;br&gt;Check out&amp;nbsp;&lt;br&gt;times" style="ellipse;whiteSpace=wrap;html=1;" parent="1" vertex="1">
                    <mxGeometry x="575" y="955.57" width="115" height="54.43" as="geometry"/>
                </mxCell>
                <mxCell id="141" value="" style="endArrow=none;dashed=1;html=1;rounded=0;endFill=0;startArrow=block;startFill=0;exitX=1;exitY=0.5;exitDx=0;exitDy=0;entryX=0;entryY=0.5;entryDx=0;entryDy=0;" parent="1" source="83" target="140" edge="1">
                    <mxGeometry width="50" height="50" relative="1" as="geometry">
                        <mxPoint x="410" y="1018.0700000000002" as="sourcePoint"/>
                        <mxPoint x="579.9999999999995" y="922.7850000000001" as="targetPoint"/>
                    </mxGeometry>
                </mxCell>
                <mxCell id="142" value="&lt;b&gt;&amp;lt;&amp;lt;Include&amp;gt;&amp;gt;&lt;br&gt;&lt;/b&gt;" style="text;html=1;align=center;verticalAlign=middle;resizable=0;points=[];autosize=1;strokeColor=none;fillColor=none;rotation=-10;" parent="1" vertex="1">
                    <mxGeometry x="460" y="967.7800000000001" width="90" height="30" as="geometry"/>
                </mxCell>
                <mxCell id="143" value="" style="endArrow=none;dashed=1;html=1;rounded=0;endFill=0;startArrow=block;startFill=0;exitX=1.023;exitY=0.593;exitDx=0;exitDy=0;exitPerimeter=0;entryX=0.5;entryY=0;entryDx=0;entryDy=0;" parent="1" target="144" edge="1">
                    <mxGeometry width="50" height="50" relative="1" as="geometry">
                        <mxPoint x="280.0000000000002" y="1365.7599999999998" as="sourcePoint"/>
                        <mxPoint x="300" y="1490" as="targetPoint"/>
                        <Array as="points"/>
                    </mxGeometry>
                </mxCell>
                <mxCell id="144" value="Invoices&amp;nbsp;" style="ellipse;whiteSpace=wrap;html=1;" parent="1" vertex="1">
                    <mxGeometry x="260" y="1490" width="100" height="65" as="geometry"/>
                </mxCell>
                <mxCell id="146" value="Actor" style="shape=umlActor;verticalLabelPosition=bottom;verticalAlign=top;html=1;outlineConnect=0;" parent="1" vertex="1">
                    <mxGeometry x="1260" y="986.93" width="50" height="80" as="geometry"/>
                </mxCell>
                <mxCell id="148" value="System&amp;nbsp;&lt;br&gt;Sign in" style="ellipse;whiteSpace=wrap;html=1;" parent="1" vertex="1">
                    <mxGeometry x="1040" y="919.9999999999999" width="90" height="60" as="geometry"/>
                </mxCell>
                <mxCell id="149" value="" style="endArrow=none;html=1;rounded=0;entryX=1;entryY=0.5;entryDx=0;entryDy=0;exitX=0;exitY=0.3333333333333333;exitDx=0;exitDy=0;exitPerimeter=0;" parent="1" source="146" target="148" edge="1">
                    <mxGeometry width="50" height="50" relative="1" as="geometry">
                        <mxPoint x="1250" y="989.9999999999999" as="sourcePoint"/>
                        <mxPoint x="1085.8400000000001" y="920.0049999999999" as="targetPoint"/>
                        <Array as="points">
                            <mxPoint x="1220" y="949.9999999999999"/>
                        </Array>
                    </mxGeometry>
                </mxCell>
                <mxCell id="150" value="Trainer&amp;nbsp;" style="text;html=1;align=center;verticalAlign=middle;resizable=0;points=[];autosize=1;strokeColor=none;fillColor=none;" parent="1" vertex="1">
                    <mxGeometry x="1245" y="1066.93" width="60" height="30" as="geometry"/>
                </mxCell>
                <mxCell id="152" value="" style="endArrow=none;html=1;rounded=0;exitX=0;exitY=0.3333333333333333;exitDx=0;exitDy=0;exitPerimeter=0;" parent="1" source="146" edge="1">
                    <mxGeometry width="50" height="50" relative="1" as="geometry">
                        <mxPoint x="1250" y="996.0966666666667" as="sourcePoint"/>
                        <mxPoint x="1100" y="1050" as="targetPoint"/>
                        <Array as="points">
                            <mxPoint x="1210" y="1050"/>
                        </Array>
                    </mxGeometry>
                </mxCell>
                <mxCell id="153" value="Create&amp;nbsp;&lt;br&gt;Workout&amp;nbsp;&lt;br&gt;plans" style="ellipse;whiteSpace=wrap;html=1;" parent="1" vertex="1">
                    <mxGeometry x="990" y="1019.9999999999999" width="110" height="60" as="geometry"/>
                </mxCell>
                <mxCell id="154" value="Schedule&amp;nbsp;&lt;br&gt;Training&amp;nbsp;&lt;br&gt;Sessions" style="ellipse;whiteSpace=wrap;html=1;" parent="1" vertex="1">
                    <mxGeometry x="980" y="1090" width="110" height="60" as="geometry"/>
                </mxCell>
                <mxCell id="155" value="" style="endArrow=none;html=1;rounded=0;entryX=1;entryY=0.5;entryDx=0;entryDy=0;exitX=0;exitY=0.3333333333333333;exitDx=0;exitDy=0;exitPerimeter=0;" parent="1" source="146" target="154" edge="1">
                    <mxGeometry width="50" height="50" relative="1" as="geometry">
                        <mxPoint x="1250" y="989.9999999999999" as="sourcePoint"/>
                        <mxPoint x="1100" y="1120" as="targetPoint"/>
                        <Array as="points">
                            <mxPoint x="1210" y="1120"/>
                        </Array>
                    </mxGeometry>
                </mxCell>
                <mxCell id="158" value="&lt;b&gt;&amp;lt;&amp;lt;Include&amp;gt;&amp;gt;&lt;br&gt;&lt;/b&gt;" style="text;html=1;align=center;verticalAlign=middle;resizable=0;points=[];autosize=1;strokeColor=none;fillColor=none;rotation=0;" parent="1" vertex="1">
                    <mxGeometry x="880" y="1021.93" width="90" height="30" as="geometry"/>
                </mxCell>
                <mxCell id="159" value="" style="endArrow=none;dashed=1;html=1;rounded=0;endFill=0;startArrow=block;startFill=0;exitX=0;exitY=0.5;exitDx=0;exitDy=0;entryX=1;entryY=0.5;entryDx=0;entryDy=0;" parent="1" source="153" target="160" edge="1">
                    <mxGeometry width="50" height="50" relative="1" as="geometry">
                        <mxPoint x="990" y="1041.8700000000001" as="sourcePoint"/>
                        <mxPoint x="870" y="1050" as="targetPoint"/>
                    </mxGeometry>
                </mxCell>
                <mxCell id="160" value="Body Measurements" style="ellipse;whiteSpace=wrap;html=1;" parent="1" vertex="1">
                    <mxGeometry x="760" y="1023.4399999999999" width="110" height="53.12" as="geometry"/>
                </mxCell>
                <mxCell id="161" value="Fitness&amp;nbsp;&lt;br&gt;goals&amp;nbsp;" style="ellipse;whiteSpace=wrap;html=1;" parent="1" vertex="1">
                    <mxGeometry x="770" y="1120.94" width="110" height="53.12" as="geometry"/>
                </mxCell>
                <mxCell id="162" value="" style="endArrow=none;dashed=1;html=1;rounded=0;endFill=0;startArrow=block;startFill=0;entryX=1;entryY=0.5;entryDx=0;entryDy=0;exitX=0.008;exitY=0.414;exitDx=0;exitDy=0;exitPerimeter=0;" parent="1" source="153" target="161" edge="1">
                    <mxGeometry width="50" height="50" relative="1" as="geometry">
                        <mxPoint x="985" y="1050" as="sourcePoint"/>
                        <mxPoint x="865.0000000000077" y="1116.14" as="targetPoint"/>
                    </mxGeometry>
                </mxCell>
                <mxCell id="163" value="&lt;b&gt;&amp;lt;&amp;lt;Include&amp;gt;&amp;gt;&lt;br&gt;&lt;/b&gt;" style="text;html=1;align=center;verticalAlign=middle;resizable=0;points=[];autosize=1;strokeColor=none;fillColor=none;rotation=-45;" parent="1" vertex="1">
                    <mxGeometry x="880" y="1080" width="90" height="30" as="geometry"/>
                </mxCell>
                <mxCell id="164" value="Genarate&amp;nbsp;&lt;br&gt;Results&amp;nbsp;" style="ellipse;whiteSpace=wrap;html=1;" parent="1" vertex="1">
                    <mxGeometry x="580" y="1152.7900000000002" width="115" height="54.43" as="geometry"/>
                </mxCell>
                <mxCell id="165" value="" style="endArrow=none;html=1;rounded=0;entryX=0.5;entryY=1;entryDx=0;entryDy=0;exitX=0;exitY=0.5;exitDx=0;exitDy=0;" parent="1" source="164" target="103" edge="1">
                    <mxGeometry width="50" height="50" relative="1" as="geometry">
                        <mxPoint x="589.9999999999995" y="1186.795" as="sourcePoint"/>
                        <mxPoint x="525" y="1186.7999999999997" as="targetPoint"/>
                        <Array as="points"/>
                    </mxGeometry>
                </mxCell>
                <mxCell id="166" value="&amp;nbsp;Stored In&amp;nbsp;&lt;br&gt;System&amp;nbsp;" style="ellipse;whiteSpace=wrap;html=1;" parent="1" vertex="1">
                    <mxGeometry x="600" y="1240.0000000000002" width="115" height="54.43" as="geometry"/>
                </mxCell>
                <mxCell id="167" value="" style="endArrow=none;html=1;rounded=0;entryX=0.5;entryY=1;entryDx=0;entryDy=0;exitX=0.457;exitY=0.028;exitDx=0;exitDy=0;exitPerimeter=0;" parent="1" source="166" target="164" edge="1">
                    <mxGeometry width="50" height="50" relative="1" as="geometry">
                        <mxPoint x="652.4999999999995" y="1240.0149999999996" as="sourcePoint"/>
                        <mxPoint x="590" y="1207.22" as="targetPoint"/>
                        <Array as="points"/>
                    </mxGeometry>
                </mxCell>
                <mxCell id="168" value="" style="endArrow=none;html=1;rounded=0;entryX=1;entryY=0.5;entryDx=0;entryDy=0;exitX=0;exitY=0.3333333333333333;exitDx=0;exitDy=0;exitPerimeter=0;" parent="1" source="146" target="169" edge="1">
                    <mxGeometry width="50" height="50" relative="1" as="geometry">
                        <mxPoint x="1250" y="1021.93" as="sourcePoint"/>
                        <mxPoint x="1100" y="1161.93" as="targetPoint"/>
                        <Array as="points">
                            <mxPoint x="1220" y="1161.93"/>
                        </Array>
                    </mxGeometry>
                </mxCell>
                <mxCell id="169" value="Track Progress&amp;nbsp;" style="ellipse;whiteSpace=wrap;html=1;" parent="1" vertex="1">
                    <mxGeometry x="980" y="1160" width="110" height="60" as="geometry"/>
                </mxCell>
                <mxCell id="174" value="&lt;font size=&quot;3&quot;&gt;GMS&lt;/font&gt;" style="text;html=1;align=center;verticalAlign=middle;resizable=0;points=[];autosize=1;strokeColor=none;fillColor=none;fontSize=14;" parent="1" vertex="1">
                    <mxGeometry x="910" y="1460" width="60" height="30" as="geometry"/>
                </mxCell>
                <mxCell id="175" value="&lt;font size=&quot;3&quot;&gt;(Gym Management System)&lt;/font&gt;" style="text;html=1;align=center;verticalAlign=middle;resizable=0;points=[];autosize=1;strokeColor=none;fillColor=none;fontSize=18;" parent="1" vertex="1">
                    <mxGeometry x="840" y="1480" width="220" height="40" as="geometry"/>
                </mxCell>
            </root>
        </mxGraphModel>
    </diagram>
</mxfile>